<svg width="16" height="16" viewBox="0 0 16 16" fill="none" xmlns="http://www.w3.org/2000/svg">
<path d="M7.67578 8.07397C7.28115 8.07397 6.88652 8.00396 6.57891 7.86392L2.24297 5.88667C2.04463 5.79644 1.58203 5.53247 1.58203 5.03413C1.58203 4.53579 2.04463 4.27241 2.24355 4.18101L6.61699 2.18677C7.21963 1.91138 8.129 1.91138 8.73193 2.18677L13.108 4.18101C13.3069 4.27153 13.7695 4.5355 13.7695 5.03413C13.7695 5.53276 13.3069 5.79585 13.108 5.88696L8.77207 7.86392C8.46504 8.00396 8.07041 8.07397 7.67578 8.07397Z" fill="#85FF4C"/>
<path d="M13.1062 7.2188L12.6642 7.01929L11.5283 7.53901L8.77441 8.79878C8.4668 8.9394 8.07129 9.00942 7.67754 9.00942C7.28379 9.00942 6.88857 8.9394 6.58125 8.79878L3.82529 7.53901L2.68916 7.01929L2.24326 7.21968C2.04463 7.3102 1.58203 7.57593 1.58203 8.07397C1.58203 8.57202 2.04463 8.83804 2.24297 8.92856L6.57891 10.9099C6.88477 11.0505 7.27998 11.1208 7.67578 11.1208C8.07158 11.1208 8.46504 11.0505 8.77266 10.9102L13.1048 8.92944C13.3043 8.83892 13.7695 8.57466 13.7695 8.07397C13.7695 7.57329 13.3075 7.31021 13.1062 7.2188Z" fill="#85FF4C"/>
<path d="M13.1062 10.2654L12.6642 10.0662L11.5283 10.5856L8.77441 11.8439C8.4668 11.9839 8.07129 12.0542 7.67754 12.0542C7.28379 12.0542 6.88857 11.9842 6.58125 11.8439L3.82529 10.5841L2.68916 10.0662L2.24326 10.2666C2.04463 10.3571 1.58203 10.6228 1.58203 11.1208C1.58203 11.6189 2.04463 11.8846 2.24297 11.9749L6.57891 13.955C6.88477 14.0951 7.28145 14.1677 7.67578 14.1677C8.07012 14.1677 8.46328 14.0951 8.7709 13.9547L13.1045 11.9751C13.3043 11.8849 13.7695 11.6207 13.7695 11.1208C13.7695 10.621 13.3075 10.3571 13.1062 10.2654Z" fill="#85FF4C"/>
</svg>
